<svg xmlns="http://www.w3.org/2000/svg" xmlns:xlink="http://www.w3.org/1999/xlink" width="388" zoomAndPan="magnify" viewBox="0 0 291 74.999997" height="100" preserveAspectRatio="xMidYMid meet" version="1.0"><defs><g/><clipPath id="e14402332c"><path d="M 4.535156 38 L 22 38 L 22 75 L 4.535156 75 Z M 4.535156 38 " clip-rule="nonzero"/></clipPath><clipPath id="22619e0fe8"><path d="M 25 19 L 54.035156 19 L 54.035156 55 L 25 55 Z M 25 19 " clip-rule="nonzero"/></clipPath><clipPath id="c567548bdb"><path d="M 37 9 L 54.035156 9 L 54.035156 29 L 37 29 Z M 37 9 " clip-rule="nonzero"/></clipPath><clipPath id="02e2906033"><path d="M 4.535156 0 L 38 0 L 38 29 L 4.535156 29 Z M 4.535156 0 " clip-rule="nonzero"/></clipPath></defs><g clip-path="url(#e14402332c)"><path fill="#fc2947" d="M 5.824219 66.183594 L 21.035156 75 L 21.035156 38.246094 L 4.539062 47.808594 L 4.539062 65.4375 Z M 5.824219 66.183594 " fill-opacity="1" fill-rule="evenodd"/></g><g clip-path="url(#22619e0fe8)"><path fill="#7149c6" d="M 25.5 35.65625 L 25.5 54.777344 L 37.53125 47.808594 L 54.035156 38.246094 L 54.035156 19.117188 L 37.53125 28.683594 Z M 25.5 35.65625 " fill-opacity="1" fill-rule="evenodd"/></g><g clip-path="url(#c567548bdb)"><path fill="#fc2947" d="M 37.53125 28.683594 L 54.035156 19.117188 L 37.53125 9.5625 Z M 37.53125 28.683594 " fill-opacity="1" fill-rule="evenodd"/></g><g clip-path="url(#02e2906033)"><path fill="#fe6244" d="M 21.035156 19.117188 L 37.53125 9.5625 L 21.035156 0 L 4.539062 9.5625 L 4.539062 28.683594 Z M 21.035156 19.117188 " fill-opacity="1" fill-rule="evenodd"/></g><g fill="#ffffff" fill-opacity="1"><g transform="translate(61.28681, 55.909025)"><g><path d="M 15.824219 -33.882812 L 7.261719 -33.882812 C 3.476562 -33.882812 0 -33.386719 0 -31.027344 C 0 -30.035156 0.683594 -28.730469 1.242188 -27.988281 C 2.980469 -25.503906 3.722656 -11.605469 1.488281 -8.9375 C 0.808594 -8.066406 0 -6.703125 0 -5.585938 C 0 -3.164062 3.476562 -2.730469 7.261719 -2.730469 L 7.820312 -2.730469 C 11.605469 -2.730469 15.078125 -3.164062 15.078125 -5.585938 C 15.078125 -6.703125 14.273438 -8.066406 13.527344 -8.9375 C 12.84375 -9.804688 12.472656 -11.480469 12.289062 -14.210938 L 15.824219 -14.210938 C 22.589844 -14.210938 28.171875 -18.742188 28.171875 -24.015625 C 28.171875 -29.289062 22.589844 -33.882812 15.824219 -33.882812 Z M 14.582031 -16.632812 C 11.230469 -16.632812 11.230469 -31.460938 14.582031 -31.460938 C 17.128906 -31.460938 19.300781 -27.367188 19.300781 -24.015625 C 19.300781 -20.726562 17.003906 -16.632812 14.582031 -16.632812 Z M 14.582031 -16.632812 "/></g></g></g><g fill="#ffffff" fill-opacity="1"><g transform="translate(90.014023, 55.909025)"><g><path d="M 12.164062 -24.265625 C 8.066406 -24.265625 5.273438 -23.085938 3.722656 -21.535156 C -1.488281 -16.074219 8.8125 -13.777344 10.300781 -17.6875 C 10.859375 -19.175781 10.859375 -22.589844 12.722656 -21.71875 C 14.582031 -20.789062 15.265625 -16.445312 11.046875 -15.140625 C 7.011719 -13.839844 1.675781 -13.960938 0.371094 -10.238281 C -1.179688 -6.082031 2.359375 -2.730469 7.570312 -2.730469 C 11.667969 -2.730469 13.28125 -5.152344 15.019531 -5.152344 C 16.816406 -5.152344 19.175781 -2.730469 22.464844 -2.730469 C 24.882812 -2.730469 26.933594 -3.722656 27.117188 -4.902344 C 27.242188 -5.769531 26.25 -6.019531 25.566406 -6.703125 C 21.347656 -10.671875 27.117188 -24.265625 12.164062 -24.265625 Z M 9.308594 -9.121094 C 9 -11.109375 11.417969 -11.914062 12.785156 -13.28125 C 13.589844 -14.085938 14.148438 -13.960938 14.273438 -13.402344 C 14.519531 -12.289062 14.644531 -10.550781 14.210938 -8.316406 C 14.085938 -7.941406 13.777344 -7.261719 13.09375 -7.136719 C 11.605469 -6.886719 9.558594 -7.382812 9.308594 -9.121094 Z M 9.308594 -9.121094 "/></g></g></g><g fill="#ffffff" fill-opacity="1"><g transform="translate(116.693729, 55.909025)"><g><path d="M 17.808594 -20.914062 L 13.464844 -20.914062 C 13.777344 -24.882812 14.273438 -28.113281 14.273438 -28.171875 C 14.582031 -30.71875 13.28125 -30.71875 12.472656 -30.71875 C 9 -30.71875 4.777344 -22.277344 1.179688 -20.914062 C 0.558594 -20.664062 0 -20.355469 0 -19.671875 L 0 -18.804688 C 0 -18.183594 0.558594 -17.625 1.179688 -17.625 L 2.605469 -17.625 L 2.605469 -8.316406 C 2.605469 -4.46875 5.523438 -2.730469 9.433594 -2.730469 C 13.960938 -2.730469 17.933594 -4.59375 17.128906 -6.390625 C 16.816406 -6.949219 15.824219 -6.453125 15.019531 -6.949219 C 13.28125 -8.066406 13.03125 -12.84375 13.21875 -17.625 L 19.050781 -17.625 L 19.050781 -19.671875 C 19.050781 -20.355469 18.492188 -20.914062 17.808594 -20.914062 Z M 17.808594 -20.914062 "/></g></g></g><g fill="#ffffff" fill-opacity="1"><g transform="translate(136.362246, 55.909025)"><g><path d="M 17.808594 -20.914062 L 13.464844 -20.914062 C 13.777344 -24.882812 14.273438 -28.113281 14.273438 -28.171875 C 14.582031 -30.71875 13.28125 -30.71875 12.472656 -30.71875 C 9 -30.71875 4.777344 -22.277344 1.179688 -20.914062 C 0.558594 -20.664062 0 -20.355469 0 -19.671875 L 0 -18.804688 C 0 -18.183594 0.558594 -17.625 1.179688 -17.625 L 2.605469 -17.625 L 2.605469 -8.316406 C 2.605469 -4.46875 5.523438 -2.730469 9.433594 -2.730469 C 13.960938 -2.730469 17.933594 -4.59375 17.128906 -6.390625 C 16.816406 -6.949219 15.824219 -6.453125 15.019531 -6.949219 C 13.28125 -8.066406 13.03125 -12.84375 13.21875 -17.625 L 19.050781 -17.625 L 19.050781 -19.671875 C 19.050781 -20.355469 18.492188 -20.914062 17.808594 -20.914062 Z M 17.808594 -20.914062 "/></g></g></g><g fill="#ffffff" fill-opacity="1"><g transform="translate(156.030764, 55.909025)"><g><path d="M 12.164062 -24.265625 C 8.066406 -24.265625 5.273438 -23.085938 3.722656 -21.535156 C -1.488281 -16.074219 8.8125 -13.777344 10.300781 -17.6875 C 10.859375 -19.175781 10.859375 -22.589844 12.722656 -21.71875 C 14.582031 -20.789062 15.265625 -16.445312 11.046875 -15.140625 C 7.011719 -13.839844 1.675781 -13.960938 0.371094 -10.238281 C -1.179688 -6.082031 2.359375 -2.730469 7.570312 -2.730469 C 11.667969 -2.730469 13.28125 -5.152344 15.019531 -5.152344 C 16.816406 -5.152344 19.175781 -2.730469 22.464844 -2.730469 C 24.882812 -2.730469 26.933594 -3.722656 27.117188 -4.902344 C 27.242188 -5.769531 26.25 -6.019531 25.566406 -6.703125 C 21.347656 -10.671875 27.117188 -24.265625 12.164062 -24.265625 Z M 9.308594 -9.121094 C 9 -11.109375 11.417969 -11.914062 12.785156 -13.28125 C 13.589844 -14.085938 14.148438 -13.960938 14.273438 -13.402344 C 14.519531 -12.289062 14.644531 -10.550781 14.210938 -8.316406 C 14.085938 -7.941406 13.777344 -7.261719 13.09375 -7.136719 C 11.605469 -6.886719 9.558594 -7.382812 9.308594 -9.121094 Z M 9.308594 -9.121094 "/></g></g></g><g fill="#7149c6" fill-opacity="1"><g transform="translate(182.7082, 55.909025)"><g><path d="M 22.773438 -9.867188 C 21.59375 -6.886719 19.859375 -5.648438 17.6875 -5.648438 C 9.929688 -5.648438 12.164062 -25.503906 13.839844 -27.988281 C 14.398438 -28.730469 15.078125 -30.035156 15.078125 -31.027344 C 15.078125 -33.386719 11.605469 -33.882812 7.820312 -33.882812 L 7.261719 -33.882812 C 3.476562 -33.882812 0 -33.386719 0 -31.027344 C 0 -30.035156 0.683594 -28.730469 1.242188 -27.988281 C 2.980469 -25.503906 3.722656 -11.605469 1.488281 -8.9375 C 0.808594 -8.066406 0 -6.703125 0 -5.585938 C 0 -3.164062 3.476562 -2.730469 7.261719 -2.730469 L 23.085938 -2.730469 C 26.683594 -2.730469 30.78125 -5.769531 30.78125 -9 C 30.78125 -12.101562 24.140625 -13.28125 22.773438 -9.867188 Z M 22.773438 -9.867188 "/></g></g></g><g fill="#7149c6" fill-opacity="1"><g transform="translate(213.793145, 55.909025)"><g><path d="M 12.164062 -24.265625 C 8.066406 -24.265625 5.273438 -23.085938 3.722656 -21.535156 C -1.488281 -16.074219 8.8125 -13.777344 10.300781 -17.6875 C 10.859375 -19.175781 10.859375 -22.589844 12.722656 -21.71875 C 14.582031 -20.789062 15.265625 -16.445312 11.046875 -15.140625 C 7.011719 -13.839844 1.675781 -13.960938 0.371094 -10.238281 C -1.179688 -6.082031 2.359375 -2.730469 7.570312 -2.730469 C 11.667969 -2.730469 13.28125 -5.152344 15.019531 -5.152344 C 16.816406 -5.152344 19.175781 -2.730469 22.464844 -2.730469 C 24.882812 -2.730469 26.933594 -3.722656 27.117188 -4.902344 C 27.242188 -5.769531 26.25 -6.019531 25.566406 -6.703125 C 21.347656 -10.671875 27.117188 -24.265625 12.164062 -24.265625 Z M 9.308594 -9.121094 C 9 -11.109375 11.417969 -11.914062 12.785156 -13.28125 C 13.589844 -14.085938 14.148438 -13.960938 14.273438 -13.402344 C 14.519531 -12.289062 14.644531 -10.550781 14.210938 -8.316406 C 14.085938 -7.941406 13.777344 -7.261719 13.09375 -7.136719 C 11.605469 -6.886719 9.558594 -7.382812 9.308594 -9.121094 Z M 9.308594 -9.121094 "/></g></g></g><g fill="#7149c6" fill-opacity="1"><g transform="translate(240.47285, 55.909025)"><g><path d="M 17.6875 -24.265625 C 15.578125 -24.265625 13.589844 -23.394531 12.039062 -22.03125 C 12.226562 -26.871094 12.660156 -31.089844 12.785156 -31.835938 C 13.714844 -35.867188 7.820312 -32.828125 5.648438 -31.710938 C 3.476562 -30.59375 0.25 -29.351562 0 -27.492188 C -0.125 -26.5 0.746094 -26.0625 1.367188 -25.195312 C 2.667969 -23.519531 2.480469 -20.355469 2.480469 -16.320312 C 2.480469 -12.785156 2.421875 -7.757812 1.117188 -6.578125 C 0.558594 -6.019531 -0.125 -5.710938 0 -4.902344 C 0.25 -3.039062 2.421875 -2.730469 4.28125 -2.730469 C 5.152344 -2.730469 9.308594 -3.414062 10.921875 -3.414062 C 12.472656 -3.414062 13.589844 -2.730469 17.6875 -2.730469 C 22.214844 -2.730469 26.996094 -7.570312 26.996094 -13.464844 C 26.996094 -19.421875 22.773438 -24.265625 17.6875 -24.265625 Z M 14.398438 -5.648438 C 12.90625 -4.964844 11.914062 -6.949219 11.914062 -13.714844 C 11.914062 -17.933594 12.101562 -19.609375 13.28125 -20.601562 C 17.871094 -24.699219 20.914062 -8.75 14.398438 -5.648438 Z M 14.398438 -5.648438 "/></g></g></g><g fill="#7149c6" fill-opacity="1"><g transform="translate(267.959147, 55.909025)"><g><path d="M 21.96875 -20.167969 C 20.539062 -23.023438 15.390625 -24.265625 11.046875 -24.265625 L 10.921875 -24.265625 C 4.777344 -24.265625 -0.1875 -21.65625 0.308594 -17.3125 C 0.929688 -11.417969 13.902344 -10.734375 12.410156 -5.832031 C 11.789062 -3.910156 8.625 -3.660156 9.058594 -6.886719 C 9.679688 -11.976562 -1.984375 -11.355469 0.308594 -6.828125 C 1.738281 -3.972656 6.828125 -2.730469 11.230469 -2.730469 L 11.355469 -2.730469 C 17.375 -2.730469 22.527344 -6.144531 21.96875 -9.433594 C 21.097656 -14.769531 8.6875 -16.132812 9.867188 -21.160156 C 10.363281 -23.085938 13.652344 -23.269531 13.21875 -20.105469 C 12.597656 -15.019531 24.265625 -15.636719 21.96875 -20.167969 Z M 21.96875 -20.167969 "/></g></g></g></svg>